<svg version="1.1" xmlns="http://www.w3.org/2000/svg" viewBox="0 0 499.79296875 238.8203125" width="499.79296875" height="238.8203125" class="excalidraw-svg">
  <!-- svg-source:excalidraw -->
  
  <defs>
    <style class="style-fonts">
      
    </style>
    
  </defs>
  <rect x="0" y="0" width="499.79296875" height="238.8203125" fill="#ffffff"/><g stroke-linecap="round" transform="translate(10 10) rotate(0 239.896484375 109.41015625)"><path d="M300 27.5 C342.1 46.91, 385.56 66.49, 419.79 82.5 M300 27.5 C346.45 48.61, 391.62 70.35, 419.79 82.5 M419.79 82.5 C480.17 108.28, 479.55 110.95, 419.79 137.5 M419.79 82.5 C477.78 109.32, 479.36 111.3, 419.79 137.5 M419.79 137.5 C380.58 155.59, 339.44 174.1, 300 191.32 M419.79 137.5 C388.46 151.64, 355.95 166.37, 300 191.32 M300 191.32 C238.64 220.39, 239.4 220.29, 180 191.32 M300 191.32 C239.09 220.82, 242.27 220.95, 180 191.32 M180 191.32 C148.71 177.07, 117.68 163.49, 60 137.5 M180 191.32 C154.62 180.04, 131.58 168.69, 60 137.5 M60 137.5 C1.93 108.71, 1.61 110.06, 60 82.5 M60 137.5 C-1.76 110.2, 1.72 109.65, 60 82.5 M60 82.5 C108.2 58.41, 154.93 37.22, 180 27.5 M60 82.5 C83.84 71.01, 107.82 61.23, 180 27.5 M180 27.5 C241.73 -1.13, 238.42 -0.01, 300 27.5 M180 27.5 C238.05 0.59, 240.3 -0.77, 300 27.5" stroke="#1e1e1e" stroke-width="2" fill="none"/></g></svg>